<svg width="20" height="21" viewBox="0 0 20 21" fill="none" xmlns="http://www.w3.org/2000/svg">
<path d="M16.0257 20.731C15.1541 20.731 13.9297 20.4043 12.0963 19.3427C9.86683 18.047 8.14237 16.8508 5.92495 14.5587C3.78701 12.3445 2.74662 10.9109 1.29052 8.16487C-0.354456 5.06442 -0.074042 3.43922 0.239415 2.74463C0.612706 1.91445 1.16371 1.41791 1.87591 0.925079C2.28043 0.650405 2.70852 0.414947 3.15474 0.221693C3.1994 0.201794 3.24092 0.182821 3.27798 0.165699C3.49901 0.0625052 3.8339 -0.093443 4.25809 0.0731486C4.54119 0.183284 4.79392 0.408646 5.18953 0.813556C6.00086 1.64281 7.10957 3.48966 7.51858 4.39666C7.79319 5.00796 7.97493 5.41148 7.97537 5.86406C7.97537 6.39391 7.71818 6.80252 7.40606 7.24353C7.34756 7.32636 7.28952 7.40549 7.23325 7.48231C6.89345 7.94506 6.81888 8.0788 6.868 8.31758C6.96758 8.79746 7.71014 10.226 8.93048 11.4879C10.1508 12.7498 11.4895 13.4708 11.9543 13.5735C12.1945 13.6268 12.3263 13.5462 12.7871 13.1816C12.8532 13.1293 12.921 13.0752 12.992 13.021C13.468 12.6541 13.844 12.3944 14.3432 12.3944H14.3459C14.7803 12.3944 15.1523 12.5897 15.7685 12.9118C16.5722 13.332 18.4079 14.4662 19.2129 15.3079C19.6045 15.717 19.8229 15.978 19.9296 16.2709C20.0903 16.7119 19.939 17.0576 19.8403 17.289C19.8238 17.3274 19.8055 17.3695 19.7863 17.4163C19.5983 17.8779 19.3698 18.3206 19.1035 18.7388C18.6289 19.4746 18.148 20.0442 17.3451 20.4316C16.9329 20.6337 16.4817 20.736 16.0257 20.731Z" fill="#4B4646"/>
</svg>
